<?xml version="1.0" standalone="no"?>
<!DOCTYPE svg PUBLIC "-//W3C//DTD SVG 20010904//EN"
 "http://www.w3.org/TR/2001/REC-SVG-20010904/DTD/svg10.dtd">
<svg version="1.0" xmlns="http://www.w3.org/2000/svg"
 width="225.000000pt" height="225.000000pt" viewBox="0 0 225.000000 225.000000"
 preserveAspectRatio="xMidYMid meet">
<metadata>
Created by potrace 1.11, written by Peter Selinger 2001-2013
</metadata>
<g transform="translate(0.000000,225.000000) scale(0.100000,-0.100000)"
fill="#000000" stroke="none">
<path d="M0 1125 l0 -1125 270 0 c266 0 271 0 260 20 -6 11 -29 108 -51 217
-22 109 -81 396 -130 638 -85 411 -90 446 -86 535 4 101 24 163 73 227 26 34
109 83 142 83 36 0 42 20 42 151 0 167 1 168 130 171 l95 3 3 43 c4 56 21 62
162 62 146 0 149 -2 152 -135 l3 -100 60 0 60 0 3 150 c2 121 6 152 19 167 15
17 -7 18 -595 18 l-612 0 0 -1125z"/>
<path d="M1488 2237 c6 -7 13 -58 14 -113 l3 -99 100 -3 c79 -2 103 -6 113
-19 8 -11 12 -57 12 -138 0 -125 6 -145 42 -145 33 0 116 -49 142 -83 81 -106
94 -232 49 -467 -17 -85 -31 -180 -31 -210 -1 -30 -10 -95 -21 -144 -11 -48
-18 -93 -15 -100 5 -14 -50 -293 -71 -356 -8 -25 -28 -112 -45 -193 -16 -82
-32 -153 -35 -158 -4 -5 94 -9 249 -9 l256 0 0 1125 0 1125 -386 0 c-317 0
-384 -2 -376 -13z"/>
<path d="M1287 2144 c-4 -4 -7 -245 -7 -536 0 -461 2 -529 15 -534 8 -4 36 4
62 17 l48 24 0 515 0 515 -55 3 c-31 2 -59 0 -63 -4z"/>
<path d="M845 2038 c-3 -7 -4 -218 -3 -468 l3 -455 48 -24 c83 -41 78 -73 75
471 l-3 483 -58 3 c-40 2 -59 -1 -62 -10z"/>
<path d="M625 1928 c-3 -7 -4 -141 -3 -298 l3 -285 29 -5 c31 -5 37 -13 57
-80 8 -25 19 -44 24 -42 6 1 10 130 10 360 l0 357 -58 3 c-40 2 -59 -1 -62
-10z"/>
<path d="M1505 1918 c-10 -26 0 -698 10 -699 6 -1 16 18 24 42 21 67 26 74 57
79 l29 5 0 290 0 290 -58 3 c-40 2 -59 -1 -62 -10z"/>
<path d="M1065 1808 c-3 -7 -4 -182 -3 -388 l3 -375 60 0 60 0 0 385 0 385
-58 3 c-40 2 -59 -1 -62 -10z"/>
<path d="M450 1608 c-19 -13 -44 -38 -57 -56 -25 -38 -46 -126 -41 -174 l3
-33 80 0 80 0 0 140 c0 157 -4 164 -65 123z"/>
<path d="M1734 1617 c-2 -7 -3 -71 -2 -143 l3 -129 80 0 80 0 3 33 c5 48 -16
136 -41 174 -24 35 -81 78 -104 78 -7 0 -16 -6 -19 -13z"/>
<path d="M376 1242 c-6 -10 220 -1122 231 -1132 20 -19 256 -30 641 -30 l412
0 9 24 c5 12 20 74 32 137 12 63 25 116 29 119 8 6 72 327 72 360 -1 14 8 66
19 117 10 50 18 118 18 150 -1 32 8 101 19 153 11 52 18 98 16 102 -3 5 -57 8
-119 8 l-114 0 -21 -48 c-59 -137 -271 -252 -464 -252 -68 0 -198 19 -261 38
-109 33 -228 129 -264 212 l-22 50 -114 0 c-62 0 -116 -3 -119 -8z m604 -537
c0 -24 -2 -25 -75 -25 l-75 0 0 -75 0 -75 65 0 65 0 0 -30 0 -30 -65 0 -65 0
0 -95 0 -95 -30 0 -30 0 0 225 0 225 105 0 105 0 0 -25z m205 15 c30 -12 55
-63 55 -115 0 -43 -22 -100 -44 -112 -14 -8 -12 -20 19 -112 l34 -102 -32 3
c-30 3 -32 6 -59 96 -28 89 -30 92 -58 92 l-30 0 0 -95 c0 -95 0 -95 -25 -95
l-25 0 0 225 0 225 69 0 c38 0 81 -4 96 -10z m171 -80 c15 -50 31 -87 35 -83
4 4 18 44 31 88 22 72 27 80 51 83 15 2 27 2 27 0 0 -2 -18 -58 -40 -123 -36
-108 -40 -128 -40 -222 l0 -103 -30 0 -30 0 0 100 c0 92 -3 108 -44 225 l-45
125 29 0 c27 0 29 -4 56 -90z"/>
<path d="M1070 605 l0 -75 43 0 c55 0 67 13 67 71 0 59 -18 79 -71 79 l-39 0
0 -75z"/>
</g>
</svg>
